<svg width="26" height="14" viewBox="0 0 26 14" fill="none" xmlns="http://www.w3.org/2000/svg">
<path d="M1.21386 7.54768C0.728471 7.66916 1.20118 7.21368 1.33011 7.06993C2.12697 6.1815 2.95989 5.27584 3.84953 4.48095C5.81256 2.72698 8.00718 1.43332 10.6705 1.08444C13.7005 0.687523 16.2179 1.74368 18.8554 3.09727C20.6741 4.03066 22.8713 5.55012 24.9995 5.55012M1.21398 8.24053C0.784842 8.26767 2.24876 9.15097 2.53166 9.37395C4.1936 10.6839 5.75524 11.8687 7.8976 12.2407C11.098 12.7965 13.9392 12.8519 17.0172 11.7558C18.9389 11.0714 20.4521 9.7754 22.0052 8.51879C22.6077 8.03138 23.1409 7.48102 23.664 6.91196C23.8706 6.68715 24.3286 5.87904 24.6624 5.87904M10.6438 4.72627C9.97148 4.4548 9.78996 5.52021 9.68491 6.01436C9.39728 7.36738 9.97846 8.55803 11.4271 8.69368C12.3399 8.77916 14.0225 8.54598 14.057 7.31609C14.0859 6.28274 13.9399 5.55003 13.1977 4.80814C11.8499 3.46108 9.80022 4.57268 10.6677 6.4604C10.9228 7.01553 11.2844 6.90006 11.5903 6.59503M11.5903 6.59503C11.825 6.36097 12.0269 6.0153 12.1227 5.77535C12.2913 5.35307 11.7566 6.27847 11.5903 6.59503ZM11.5903 6.59503C11.5507 6.67039 11.532 6.71124 11.5486 6.6912" stroke="#1E1E1E" stroke-width="2" stroke-linecap="round" stroke-linejoin="round"/>
</svg>
