<svg width="26" height="30" viewBox="0 0 26 30" fill="none" xmlns="http://www.w3.org/2000/svg">
<path d="M1.51128 28.0274C0.269675 27.9139 1.66274 24.9769 1.7967 24.5462C3.08127 20.416 4.76053 17.6226 7.9756 14.7415C11.7202 11.386 18.5747 10.9001 21.8889 15.3549C23.3481 17.3163 25 19.7586 25 22.3397C25 23.0332 24.4194 27.2761 25 27.4989M11.3317 10.8685C10.7773 10.5693 10.5973 10.8176 9.8862 10.4842C7.93717 9.57051 6.88623 7.11586 7.37703 5.04925C8.35768 0.920018 11.3234 0.511539 14.9913 1.36988C17.7295 2.01067 18.0722 5.33054 16.9586 7.5277C15.9466 9.52455 13.6062 9.95418 11.7948 10.9317" stroke="#1E1E1E" stroke-width="2" stroke-linecap="round" stroke-linejoin="round"/>
</svg>
